<?xml version="1.0" encoding="utf-8"?>
<!-- Generator: Adobe Illustrator 28.0.0, SVG Export Plug-In . SVG Version: 6.00 Build 0)  -->
<svg version="1.1" id="Layer_1" xmlns="http://www.w3.org/2000/svg" xmlns:xlink="http://www.w3.org/1999/xlink" x="0px" y="0px"
	 viewBox="0 0 1040.28 459.83" style="enable-background:new 0 0 1040.28 459.83;" xml:space="preserve">
<style type="text/css">
	.st0{stroke:#000000;stroke-width:4;stroke-miterlimit:10;}
</style>
<g>
	<path d="M63.84,308.82c1.32-6.27,2.66-12.52,3.94-18.8c4.99-24.45,9.95-48.91,14.96-73.36c1.54-7.5,3.37-14.94,4.79-22.46
		c0.86-4.56,3.1-6.53,7.85-6.35c7.65,0.29,15.34,0.43,22.98,0.05c4.79-0.24,7.14,1.76,8.16,6.05c1.66,6.96,3.52,13.89,4.9,20.9
		c5.66,28.9,11.15,57.84,16.81,86.74c0.34,1.72,1.59,3.26,2.41,4.88c1.04-1.66,2.7-3.2,3.04-5c4.51-23.35,8.67-46.77,13.26-70.1
		c2.31-11.74,5.21-23.37,7.97-35.02c1.9-8.01,2.65-8.52,10.73-8.54c7.66-0.02,15.33-0.09,22.99,0c5.63,0.06,7.1,1.71,5.75,7
		c-2.6,10.15-5.48,20.22-8.3,30.31c-3.22,11.53-6.56,23.02-9.76,34.55c-4.67,16.81-9.3,33.64-13.91,50.48
		c-2.94,10.74-5.82,21.5-8.74,32.25c-0.65,2.41-1.26,4.83-1.99,7.22c-1.21,3.98-3.66,5.9-8.11,5.75
		c-8.32-0.28-16.66-0.11-24.99-0.08c-3.64,0.01-5.99-1.43-6.81-5.18c-6.14-27.96-12.42-55.88-18.41-83.87
		c-1.56-7.31-2.16-14.82-3.3-22.22c-0.37-2.39-1.04-4.74-1.57-7.11c-0.43-0.07-0.87-0.14-1.3-0.21c-0.74,2.03-1.81,4-2.18,6.09
		c-2.2,12.46-3.84,25.03-6.43,37.41c-4.09,19.54-8.78,38.96-13.22,58.43c-0.78,3.41-1.63,6.8-2.3,10.23
		c-0.82,4.17-3.05,6.49-7.49,6.47c-8.66-0.04-17.33-0.06-25.99,0.02c-4.37,0.04-6.44-1.99-7.56-6.26
		c-5.52-21.06-11.34-42.05-17-63.07c-3.16-11.72-6.13-23.49-9.35-35.19c-3.08-11.2-6.49-22.32-9.55-33.53
		c-2.14-7.85-3.97-15.78-5.88-23.7c-0.99-4.12,0.77-5.85,4.97-5.79c8.83,0.12,17.66,0.11,26.49-0.01c3.96-0.05,6.03,1.56,6.95,5.51
		c5.79,24.78,12.02,49.46,17.49,74.31c2.28,10.37,3.04,21.08,4.54,31.63c0.45,3.2,1.06,6.37,1.6,9.56
		C62.81,308.82,63.33,308.82,63.84,308.82z"/>
	<path d="M683.94,271.9c0-25,0-50,0-74.99c0-7.94,0.99-8.92,8.88-8.89c8.17,0.03,16.35-0.28,24.49,0.2c2.55,0.15,5.98,1.74,7.3,3.77
		c8.82,13.67,17.32,27.55,25.65,41.53c8.23,13.82,16.26,27.76,24.12,41.8c3.64,6.49,6.56,13.38,10.03,19.97
		c0.71,1.36,2.42,2.19,3.67,3.27c0.56-1.39,1.63-2.8,1.6-4.18c-0.56-30.8-1.24-61.61-1.88-92.41c-0.06-2.83-0.02-5.67,0-8.5
		c0.02-3.58,1.52-5.48,5.42-5.51c9.32-0.06,18.64-0.34,27.96-0.6c3.94-0.11,3.63,2.87,3.64,5.22c0.07,12-0.21,24-0.01,35.99
		c0.15,9.11,1.01,18.22,1.16,27.33c0.06,3.93-1.28,7.88-1.3,11.82c-0.11,26.5-0.06,53-0.02,79.49c0.01,7.13-0.82,8.06-8,8.09
		c-8.67,0.04-17.35,0.29-25.99-0.19c-2.53-0.14-5.9-1.84-7.25-3.89c-7.35-11.24-14.23-22.8-21.2-34.29
		c-6.89-11.34-13.94-22.59-20.46-34.14c-6.2-10.97-11.76-22.31-17.72-33.41c-0.67-1.25-2.18-2.06-3.29-3.08
		c-0.6,1.36-1.73,2.74-1.71,4.09c0.45,32.32,1.05,64.63,1.56,96.95c0.11,7.19-0.72,7.93-8.05,7.96c-7.33,0.03-14.67,0.08-22-0.01
		c-5.54-0.07-6.66-1.31-6.66-6.9c-0.01-25.5,0-51,0-76.49C683.89,271.9,683.91,271.9,683.94,271.9z"/>
	<path d="M587.97,271.95c0,25,0,50,0,74.99c0,7.18-1.16,8.35-8.44,8.37c-6.17,0.01-12.33,0.03-18.5,0
		c-6.29-0.03-7.51-1.26-7.51-7.68c0.01-18,0.05-36,0.07-54c0.01-8.32-0.75-9.05-9.15-9.04c-15,0.01-30-0.01-45,0.01
		c-8.04,0.01-8.61,0.61-8.6,8.96c0.01,17.83,0.04,35.66,0.06,53.5c0.01,6.98-1.18,8.24-8.04,8.26c-7.5,0.02-15,0.02-22.5,0
		c-6.98-0.02-8.42-1.43-8.32-8.61c0.18-13.49,0.65-26.98,0.69-40.46c0.09-36.66,0.02-73.33-0.01-109.99c0-7.48,0.76-8.32,8.24-8.37
		c7.5-0.05,15-0.08,22.5-0.06c6.18,0.01,7.53,1.36,7.53,7.75c0,16.17-0.05,32.33-0.1,48.5c-0.02,7.37,0.64,8.09,7.89,8.1
		c15.83,0.02,31.66,0.04,47.5,0.01c6.19-0.01,7.29-1.13,7.3-7.31c0.01-16.17-0.02-32.33-0.02-48.5c0-7.36,1.03-8.37,8.32-8.39
		c6.17-0.02,12.33-0.15,18.5-0.13c6.37,0.02,7.6,1.24,7.6,7.61C587.98,220.96,587.97,246.46,587.97,271.95z"/>
	<path d="M949.21,56.51c-1.26-4.3-3.4-8.38-5.46-12.41c-2.47-4.84-5.78-9.33-7.68-14.36c-2.13-5.64-3.9-6.73-9.28-4.04
		c-21.7,10.82-43.45,21.55-65.19,32.28c-16.55,8.16-33.15,16.22-49.68,24.42c-23.55,11.68-47.03,23.47-70.59,35.13
		c-3.49,1.73-6.36,1.08-8.04-3c-1.43-3.46-3.27-6.75-5.63-11.53c-1.85,3.12-3.51,5.11-4.28,7.39c-4.5,13.22-8.49,26.61-13.29,39.71
		c-1.77,4.84-0.06,7.03,3.83,8.38c14.43,5.03,28.91,9.9,43.41,14.72c1.02,0.34,2.36-0.28,4.42-0.58c-1.7-3.57-2.93-6.42-4.4-9.14
		c-2.83-5.24-2.24-8.09,2.77-10.56c13.57-6.68,27.23-13.16,40.8-19.84c21.79-10.72,43.51-21.55,65.29-32.28
		c14.78-7.27,29.56-14.54,44.45-21.56c0.6-0.28,1.28-0.46,1.99-0.58c1.25-0.64,2.54-1.22,3.83-1.72c1.67-0.88,3.38-1.67,5.12-2.29
		c0.84-0.49,1.69-0.96,2.57-1.41c6.65-4.84,14.19-8.02,21.37-11.91C947.23,60.4,949.55,57.69,949.21,56.51z"/>
	<path d="M363.02,187.84c20.32,0,40.64-0.02,60.97,0.01c7.34,0.01,7.92,0.67,7.93,8.06c0,5.5-0.01,10.99-0.01,16.49
		c0.01,8.3-0.26,8.56-8.8,8.54c-11.16-0.03-22.32-0.09-33.48-0.09c-6.52,0-7.07,0.5-7.08,7.19c-0.02,39.31-0.01,78.63,0.02,117.94
		c0.01,8.63-0.67,9.34-9.37,9.33c-7,0-13.99,0.01-20.99,0c-7.31-0.01-8.44-1.13-8.44-8.35c0.02-38.48,0.05-76.96,0.07-115.44
		c0-1.5-0.03-3-0.02-4.5c0.03-4.37-2.06-6.26-6.49-6.2c-11.99,0.16-23.99,0.13-35.98,0.11c-6.84-0.01-7.51-0.7-7.55-7.35
		c-0.03-6.33-0.07-12.66,0-18.99c0.07-5.83,0.83-6.59,6.75-6.6c20.82-0.04,41.65-0.01,62.47-0.01
		C363.02,187.93,363.02,187.89,363.02,187.84z"/>
	<path d="M655.44,271.67c0,24.83,0,49.66,0,74.49c0,8.03-1.15,9.16-9.28,9.16c-7.67,0-15.33-0.07-23,0.03
		c-4.61,0.06-6.64-1.98-6.64-6.63c0.06-51.33,0.03-102.65,0.08-153.98c0.01-5.31,1.49-6.73,6.95-6.82
		c8.16-0.13,16.33-0.11,24.5-0.11c5.98,0,7.33,1.25,7.35,7.37c0.07,16.16,0.02,32.33,0.01,48.49c0,9.33,0,18.66,0,28
		C655.42,271.67,655.43,271.67,655.44,271.67z"/>
	<path d="M273.7,271.37c0,25.14-0.01,50.28,0,75.42c0,7.39-1.04,8.5-8.24,8.52c-7.66,0.02-15.32,0.03-22.97,0
		c-5.75-0.03-7.29-1.57-7.4-7.47c-0.07-3.99,0.02-7.99,0.02-11.99c0-46.28-0.01-92.57-0.01-138.85c0-8.3,0.84-9.14,9.09-9.16
		c7.33-0.02,14.65-0.06,21.98-0.04c6.36,0.02,7.53,1.17,7.53,7.63C273.72,220.76,273.7,246.07,273.7,271.37z"/>
	<path d="M742.43,425.34c0,2,0.06,3.99-0.01,5.99c-0.15,3.96-2.61,5.49-6.23,5.64c-3.63,0.15-5.17-2.12-5.32-5.26
		c-0.22-4.48-0.24-8.99,0.03-13.46c0.19-3.1,1.67-5.35,5.39-5.13c3.44,0.2,5.8,1.59,6.08,5.25c0.18,2.31,0.03,4.65,0.03,6.98
		C742.41,425.34,742.42,425.34,742.43,425.34z"/>
	<path d="M241.14,447.68c0,2.32,0.08,4.64-0.02,6.95c-0.15,3.66-2.11,5.34-5.79,5.18c-3.56-0.15-5.62-1.76-5.62-5.47
		c0-4.47,0.01-8.94,0.13-13.41c0.11-4.16,2.81-5.12,6.4-5.13c3.76-0.01,4.85,2.25,4.97,5.42c0.08,2.15,0.02,4.3,0.02,6.46
		C241.2,447.68,241.17,447.68,241.14,447.68z"/>
	<path d="M960.43,194.73c0-1.66,0.11-3.33-0.02-4.99c-0.33-4.24,1.15-6.53,5.82-6.6c4.88-0.07,5.89,2.6,5.76,6.66
		c-0.13,3.99-0.06,7.98-0.11,11.97c-0.05,3.83-2.53,4.59-5.73,4.55c-3.16-0.04-5.67-0.73-5.65-4.61c0.02-2.33,0-4.65,0-6.98
		C960.47,194.73,960.45,194.73,960.43,194.73z"/>
	<path d="M564.7,109.99c0.19-2.64,0.01-5.38,0.71-7.88c0.4-1.4,2.12-3,3.52-3.31c0.83-0.19,3.06,1.87,3.16,3.04
		c0.45,5.26,0.59,10.58,0.28,15.85c-0.08,1.29-2.55,3.61-3.47,3.41c-1.53-0.33-3.41-2.13-3.85-3.68c-0.65-2.31-0.17-4.93-0.17-7.42
		C564.83,110,564.77,109.99,564.7,109.99z"/>
	<path class="st0" d="M825.77,258.95l213-245L825.77,258.95z"/>
	<path class="st0" d="M825.77,190.95l159-189L825.77,190.95z"/>
	<line class="st0" x1="1038.77" y1="13.95" x2="984.77" y2="1.95"/>
	<line class="st0" x1="984.77" y1="1.95" x2="932.27" y2="25.95"/>
	<path class="st0" d="M946.77,57.95l86.45-37.61L946.77,57.95z"/>
</g>
</svg>
